<svg id="Layer_1" data-name="Layer 1" xmlns="http://www.w3.org/2000/svg" viewBox="0 0 200 200"><defs><style>.cls-1{fill:#HEXCOD;}.cls-2{fill:#fff;}</style></defs><title>icon_card</title><circle class="cls-1" cx="100" cy="100" r="100"/><path class="cls-2" d="M142.34,67.15a3.48,3.48,0,0,1,3.48,3.48v58.74a3.48,3.48,0,0,1-3.48,3.48H57.66a3.48,3.48,0,0,1-3.48-3.48V70.63a3.48,3.48,0,0,1,3.48-3.48h84.68m0-3.46H57.66a7,7,0,0,0-6.94,6.94v58.74a7,7,0,0,0,6.94,6.94h84.68a7,7,0,0,0,6.94-6.94V70.63a7,7,0,0,0-6.94-6.94Z"/><rect class="cls-2" x="50.72" y="77.52" width="98.56" height="17.29"/><rect class="cls-2" x="66.28" y="108.65" width="43.23" height="5.19" rx="1.71"/><rect class="cls-2" x="66.28" y="117.29" width="32.85" height="5.19" rx="1.49"/><rect class="cls-2" x="123.34" y="108.65" width="13.83" height="13.83" rx="1.58"/></svg>