<svg id="Layer_1" data-name="Layer 1" xmlns="http://www.w3.org/2000/svg" viewBox="0 0 200 200">
	<defs>
		<style>
			.cls-1{fill:#HEXCOD;}.cls-2{fill:#fff;}
		</style>
	</defs>
	<title>
		icon_group
	</title>
	<circle class="cls-1" cx="100" cy="100" r="89.5" />
	<path class="cls-2" d="M120.21,130.73v10c-.86.8-5.31,4.07-20.21,4.07s-19.35-3.27-20.21-4.07v-10a14.88,14.88,0,0,1,2.31-8c2.29-3.55,6.23-8,12-9a14.09,14.09,0,0,0,11.78,0c5.76,1,9.71,5.41,12,9A14.94,14.94,0,0,1,120.21,130.73Z" />
	<path class="cls-2" d="M110.29,100.88A10.29,10.29,0,1,1,100,90.58,10.29,10.29,0,0,1,110.29,100.88Z" />
	<path class="cls-2" d="M90.05,110.89c-5.31,2-9,6.37-11.16,9.72A18.67,18.67,0,0,0,76,130.73v1.78c-12.67-.37-16.63-3.18-17.54-4v-10a14.8,14.8,0,0,1,2.32-8c2.29-3.55,6.23-8,12-9a14,14,0,0,0,11.78,0,14,14,0,0,1,1.4.33A14.18,14.18,0,0,0,90.05,110.89Z" />
	<path class="cls-2" d="M88.94,88.67a10.31,10.31,0,1,1-10.3-10.29A10.31,10.31,0,0,1,88.94,88.67Z" />
	<path class="cls-2" d="M141.58,118.51v10c-.91.85-4.87,3.66-17.54,4v-1.78a18.6,18.6,0,0,0-2.94-10.12c-2.17-3.35-5.84-7.67-11.15-9.72a14.18,14.18,0,0,0,4.13-9.06,14,14,0,0,1,1.4-.33,14,14,0,0,0,11.78,0c5.77,1,9.71,5.43,12,9A14.8,14.8,0,0,1,141.58,118.51Z" />
	<path class="cls-2" d="M131.67,88.67a10.31,10.31,0,1,1-10.31-10.29A10.32,10.32,0,0,1,131.67,88.67Z" />
	<path class="cls-2" d="M110.17,79.85a14.09,14.09,0,0,0-2.93,8.59v.1a14,14,0,0,0-14.48,0v-.1a14.1,14.1,0,0,0-2.93-8.6,14.8,14.8,0,0,1,4.28-1.47,14.09,14.09,0,0,0,5.89,1.3,13.92,13.92,0,0,0,5.88-1.28A14.73,14.73,0,0,1,110.17,79.85Z" />
	<ellipse class="cls-2" cx="100" cy="65.55" rx="10.29" ry="10.3" />
</svg>
