<?xml version="1.0" encoding="utf-8"?>
<!-- Generator: Adobe Illustrator 23.0.6, SVG Export Plug-In . SVG Version: 6.00 Build 0)  -->
<svg version="1.1" id="Layer_1" xmlns="http://www.w3.org/2000/svg" xmlns:xlink="http://www.w3.org/1999/xlink" x="0px" y="0px"
	 viewBox="0 0 200 200" style="enable-background:new 0 0 200 200;" xml:space="preserve">
<style type="text/css">
	.st0{fill:#HEXCOD;}
	.st1{enable-background:new    ;}
	.st2{fill:#FFFFFF;}
</style>
<title>icon_blog</title>
<circle class="st0" cx="100" cy="100" r="89.5"/>
<g class="st1">
	<path class="st2" d="M61.8,99.5c1.1,1.4,1.6,3.1,1.6,5.2c0,2.9-1.2,5.2-3.6,6.8c-2.4,1.6-5.8,2.4-10.3,2.4H31.4V80.3h17.2
		c4.3,0,7.6,0.8,9.8,2.4c2.2,1.6,3.4,3.7,3.4,6.4c0,1.6-0.4,3-1.2,4.3c-0.8,1.3-1.9,2.3-3.3,3C59.2,97.1,60.7,98.1,61.8,99.5z
		 M40.8,87.2v6.5h6.5c3.2,0,4.8-1.1,4.8-3.3c0-2.1-1.6-3.2-4.8-3.2H40.8z M53.8,103.6c0-2.3-1.7-3.4-5-3.4h-8v6.8h8
		C52.1,107.1,53.8,105.9,53.8,103.6z"/>
</g>
<g class="st1">
	<path class="st2" d="M68.5,80.3H78v26.1h16v7.5H68.5V80.3z"/>
</g>
<g class="st1">
	<path class="st2" d="M105,112.3c-2.8-1.5-5.1-3.6-6.7-6.2c-1.6-2.7-2.4-5.6-2.4-9s0.8-6.3,2.4-9c1.6-2.7,3.8-4.7,6.7-6.2
		s6-2.3,9.6-2.3c3.6,0,6.7,0.8,9.6,2.3s5.1,3.6,6.7,6.2c1.6,2.7,2.4,5.6,2.4,9s-0.8,6.3-2.4,9c-1.6,2.7-3.8,4.7-6.7,6.2
		c-2.8,1.5-6,2.3-9.6,2.3C111.1,114.6,107.9,113.8,105,112.3z M119.2,105.5c1.4-0.8,2.5-1.9,3.3-3.4c0.8-1.5,1.2-3.1,1.2-5
		c0-1.9-0.4-3.6-1.2-5c-0.8-1.5-1.9-2.6-3.3-3.4c-1.4-0.8-2.9-1.2-4.6-1.2c-1.7,0-3.2,0.4-4.6,1.2c-1.4,0.8-2.5,1.9-3.3,3.4
		c-0.8,1.5-1.2,3.1-1.2,5c0,1.9,0.4,3.6,1.2,5c0.8,1.5,1.9,2.6,3.3,3.4c1.4,0.8,2.9,1.2,4.6,1.2
		C116.3,106.7,117.8,106.3,119.2,105.5z"/>
	<path class="st2" d="M160.8,96.4h8.4v13.9c-1.9,1.4-4.1,2.4-6.6,3.2c-2.5,0.7-5,1.1-7.5,1.1c-3.5,0-6.7-0.7-9.5-2.2
		c-2.8-1.5-5-3.6-6.6-6.2c-1.6-2.7-2.4-5.7-2.4-9c0-3.4,0.8-6.4,2.4-9c1.6-2.7,3.8-4.7,6.7-6.2c2.8-1.5,6.1-2.2,9.6-2.2
		c3.1,0,6,0.5,8.4,1.6c2.5,1.1,4.6,2.6,6.2,4.6l-6,5.5c-2.3-2.5-5-3.7-8.2-3.7c-2.9,0-5.2,0.9-7,2.6c-1.8,1.7-2.6,4.1-2.6,7
		c0,1.9,0.4,3.5,1.2,5c0.8,1.5,1.9,2.6,3.4,3.4c1.4,0.8,3.1,1.2,4.9,1.2c1.8,0,3.5-0.4,5.1-1.1V96.4z"/>
</g>
</svg>
