<svg id="Layer_1" data-name="Layer 1" xmlns="http://www.w3.org/2000/svg" viewBox="0 0 200 200">
	<defs>
		<style>
			.cls-1{fill:#HEXCOD;}.cls-2{fill:#fff;}
		</style>
	</defs>
	<title>
		icon_analytics
	</title>
	<circle class="cls-1" cx="100" cy="100" r="89.5" />
	<circle class="cls-2" cx="66.97" cy="80.91" r="7.88" />
	<path class="cls-2" d="M96.67,90l-23,1.21s-2.42,3.64-6.06,3.64S63,91.58,61.52,91.21c-4.85-1.21-6.93,2.11-7.24,4.84,0,.2,0,.41,0,.62v18.78l3.63,2.43,2.43,21.81H76.06l2.43-40,18.18-3.64Z" />
	<polygon class="cls-2" points="145.75 60.31 81.52 60.31 81.52 66.37 84.55 66.37 84.55 86.36 86.97 86.36 86.97 66.37 140.3 66.37 140.3 119.09 86.97 119.09 86.97 100.91 84.55 102.12 84.55 119.09 84.55 121.51 86.97 121.51 112.12 121.51 112.12 128.94 101.37 139.69 106.51 139.69 113.94 132.26 121.37 139.69 126.51 139.69 115.76 128.94 115.76 121.51 140.3 121.51 142.72 121.51 142.72 119.09 142.72 66.37 145.75 66.37 145.75 60.31" />
</svg>
