<svg id="Layer_1" data-name="Layer 1" xmlns="http://www.w3.org/2000/svg" viewBox="0 0 200 200"><defs><style>.cls-1{fill:#0046be;}.cls-2{fill:#fff;}</style></defs><title>icon_analytics</title><circle class="cls-1" cx="100" cy="100" r="100"/><circle class="cls-2" cx="63.1" cy="78.67" r="8.8"/><path class="cls-2" d="M96.28,88.83,70.55,90.18s-2.71,4.06-6.77,4.06S58.66,90.6,57,90.18c-5.41-1.35-7.74,2.36-8.08,5.41a5.32,5.32,0,0,0,0,.69v21l4.06,2.7,2.71,24.38h17.6L76,99.66,96.28,95.6Z"/><polygon class="cls-2" points="151.12 55.65 79.35 55.65 79.35 62.42 82.73 62.42 82.73 84.77 85.44 84.77 85.44 62.42 145.03 62.42 145.03 121.33 85.44 121.33 85.44 101.02 82.73 102.37 82.73 121.33 82.73 124.04 85.44 124.04 113.54 124.04 113.54 132.34 101.53 144.35 107.27 144.35 115.57 136.05 123.87 144.35 129.62 144.35 117.6 132.34 117.6 124.04 145.03 124.04 147.74 124.04 147.74 121.33 147.74 62.42 151.12 62.42 151.12 55.65"/></svg>