<svg id="Layer_1" data-name="Layer 1" xmlns="http://www.w3.org/2000/svg" viewBox="0 0 200 200"><defs><style>.cls-1{fill:#0046be;}.cls-2{fill:#fff;}</style></defs><title>icon_blog</title><circle class="cls-1" cx="100" cy="100" r="100"/><path class="cls-2" d="M57.87,99.52a9,9,0,0,1,1.83,5.68,8.64,8.64,0,0,1-4.08,7.64q-4.08,2.72-11.8,2.71H22.69V78H42.75c5,0,8.79.9,11.34,2.68a8.31,8.31,0,0,1,3.84,7.14,8.68,8.68,0,0,1-1.32,4.72,9.32,9.32,0,0,1-3.89,3.37A11.23,11.23,0,0,1,57.87,99.52ZM35.13,86.86v5.58H41c2.76,0,4.13-.93,4.13-2.79S43.79,86.86,41,86.86Zm11.8,16.89c0-2-1.39-3-4.18-3H35.13v5.9h7.62Q46.94,106.7,46.93,103.75Z"/><path class="cls-2" d="M64.15,78H76.8v27.73h17v9.81H64.15Z"/><path class="cls-2" d="M105.5,113.89a19.25,19.25,0,0,1,0-34.22,24.77,24.77,0,0,1,21.77,0,19.25,19.25,0,0,1,0,34.22,24.77,24.77,0,0,1-21.77,0ZM120.65,105a8.13,8.13,0,0,0,3-3.27,11.54,11.54,0,0,0,0-9.92,8.26,8.26,0,0,0-3-3.27,8.48,8.48,0,0,0-8.53,0,8.26,8.26,0,0,0-3,3.27,11.54,11.54,0,0,0,0,9.92A8.28,8.28,0,0,0,120.65,105Z"/><path class="cls-2" d="M167,95.76h11v15.88a25.75,25.75,0,0,1-7.73,3.54,32,32,0,0,1-8.63,1.23,22.93,22.93,0,0,1-10.78-2.49,18.7,18.7,0,0,1-7.48-7,20.42,20.42,0,0,1,0-20.33,18.4,18.4,0,0,1,7.56-7,23.54,23.54,0,0,1,11-2.5A25.2,25.2,0,0,1,171.81,79a18.61,18.61,0,0,1,7.27,5.39L171,91.53a10.74,10.74,0,0,0-8.42-4.13,8.87,8.87,0,0,0-6.65,2.52,10.74,10.74,0,0,0,0,13.67,8.56,8.56,0,0,0,6.52,2.58,12,12,0,0,0,4.61-.91Z"/></svg>