<svg id="Layer_1" data-name="Layer 1" xmlns="http://www.w3.org/2000/svg" viewBox="0 0 200 200"><defs><style>.cls-1{fill:#0046be;}.cls-2{fill:#fff;}</style></defs><title>icon_group</title><circle class="cls-1" cx="100" cy="100" r="100"/><path class="cls-2" d="M122.58,134.34v11.11c-1,.9-5.93,4.55-22.58,4.55s-21.62-3.65-22.58-4.55V134.34a16.61,16.61,0,0,1,2.58-9c2.56-4,7-8.92,13.41-10a15.75,15.75,0,0,0,13.16,0c6.44,1.1,10.85,6,13.43,10A16.67,16.67,0,0,1,122.58,134.34Z"/><path class="cls-2" d="M111.5,101A11.5,11.5,0,1,1,100,89.47,11.5,11.5,0,0,1,111.5,101Z"/><path class="cls-2" d="M88.88,112.17c-5.93,2.29-10,7.11-12.47,10.86a20.9,20.9,0,0,0-3.27,11.31v2c-14.16-.41-18.58-3.55-19.6-4.5V120.68a16.6,16.6,0,0,1,2.59-9c2.56-4,7-8.91,13.41-10a15.65,15.65,0,0,0,13.16,0c.51.09,1,.21,1.57.36A15.91,15.91,0,0,0,88.88,112.17Z"/><path class="cls-2" d="M87.64,87.34a11.52,11.52,0,1,1-11.51-11.5A11.52,11.52,0,0,1,87.64,87.34Z"/><path class="cls-2" d="M146.46,120.68v11.14c-1,1-5.44,4.09-19.6,4.5v-2A20.83,20.83,0,0,0,123.58,123c-2.43-3.75-6.53-8.57-12.46-10.86A15.91,15.91,0,0,0,115.73,102c.55-.15,1.06-.27,1.57-.36a15.65,15.65,0,0,0,13.16,0c6.45,1.13,10.85,6.07,13.41,10A16.6,16.6,0,0,1,146.46,120.68Z"/><path class="cls-2" d="M135.39,87.34a11.52,11.52,0,1,1-11.52-11.5A11.53,11.53,0,0,1,135.39,87.34Z"/><path class="cls-2" d="M111.36,77.49a15.72,15.72,0,0,0-3.27,9.59v.12a15.67,15.67,0,0,0-16.18,0v-.12a15.78,15.78,0,0,0-3.27-9.61,16.64,16.64,0,0,1,4.78-1.64,15.73,15.73,0,0,0,13.15,0A16.3,16.3,0,0,1,111.36,77.49Z"/><ellipse class="cls-2" cx="100" cy="61.51" rx="11.5" ry="11.51"/></svg>