<svg id="Layer_1" data-name="Layer 1" xmlns="http://www.w3.org/2000/svg" viewBox="0 0 200 200">
	<defs>
		<style>
			.cls-1{fill:#HEXCOD;}.cls-2{fill:silver;}.cls-3{fill:#e1e1e1;}.cls-4{fill:#fff;}.cls-5{fill:#f04f5a;}.cls-6{fill:#c94150;}
		</style>
	</defs>
	<title>
		icon_calendar
	</title>
	<circle class="cls-1" cx="100" cy="100" r="89.5" />
	<path class="cls-2" d="M144.3,72V139.8a8,8,0,0,1-8.2,7.7H63.9a8,8,0,0,1-8.2-7.7V72a8,8,0,0,1,8.2-7.7h72.2A8,8,0,0,1,144.3,72Z" />
	<path class="cls-3" d="M144.3,71v67.79a8,8,0,0,1-8.2,7.7H63.9a8,8,0,0,1-8.2-7.7V71a8,8,0,0,1,8.2-7.7h72.2A8,8,0,0,1,144.3,71Z" />
	<path class="cls-4" d="M144.3,70v67.79a8,8,0,0,1-8.2,7.7H63.9a8,8,0,0,1-8.2-7.7V70a8,8,0,0,1,8.2-7.7h72.2A8,8,0,0,1,144.3,70Z" />
	<path class="cls-5" d="M144.3,70.55V94.83H55.7V70.55a8.21,8.21,0,0,1,8.2-8.21h72.2A8.21,8.21,0,0,1,144.3,70.55Z" />
	<circle class="cls-6" cx="72.44" cy="68.74" r="5.91" />
	<rect class="cls-3" x="67.51" y="52.5" width="9.84" height="19.69" rx="4.92" />
	<circle class="cls-6" cx="127.56" cy="68.74" r="5.91" />
	<rect class="cls-3" x="122.64" y="52.5" width="9.84" height="19.69" rx="4.92" />
	<rect class="cls-3" x="63.85" y="105.17" width="12.58" height="12.58" />
	<rect class="cls-3" x="83.76" y="105.17" width="12.58" height="12.58" />
	<rect class="cls-3" x="103.67" y="105.17" width="12.58" height="12.58" />
	<rect class="cls-3" x="123.58" y="105.17" width="12.58" height="12.58" />
	<rect class="cls-3" x="63.85" y="125.08" width="12.58" height="12.58" />
	<rect class="cls-3" x="83.76" y="125.08" width="12.58" height="12.58" />
	<rect class="cls-3" x="103.67" y="125.08" width="12.58" height="12.58" />
	<rect class="cls-5" x="123.58" y="125.08" width="12.58" height="12.58" />
	<rect class="cls-6" x="55.7" y="90.89" width="88.6" height="3.94" />
</svg>
