<svg id="Layer_1" data-name="Layer 1" xmlns="http://www.w3.org/2000/svg" viewBox="0 0 200 200"><defs><style>.cls-1{fill:#0046be;}.cls-2{fill:silver;}.cls-3{fill:#e1e1e1;}.cls-4{fill:#fff;}.cls-5{fill:#f04f5a;}.cls-6{fill:#c94150;}</style></defs><title>icon_calendar</title><circle class="cls-1" cx="100" cy="100" r="100"/><path class="cls-2" d="M149.5,68.73v75.74a8.9,8.9,0,0,1-9.16,8.6H59.66a8.9,8.9,0,0,1-9.16-8.6V68.73a8.9,8.9,0,0,1,9.16-8.6h80.68A8.9,8.9,0,0,1,149.5,68.73Z"/><path class="cls-3" d="M149.5,67.63v75.74a8.9,8.9,0,0,1-9.16,8.6H59.66a8.9,8.9,0,0,1-9.16-8.6V67.63A8.9,8.9,0,0,1,59.66,59h80.68A8.9,8.9,0,0,1,149.5,67.63Z"/><path class="cls-4" d="M149.5,66.53v75.74a8.9,8.9,0,0,1-9.16,8.6H59.66a8.9,8.9,0,0,1-9.16-8.6V66.53a8.9,8.9,0,0,1,9.16-8.6h80.68A8.9,8.9,0,0,1,149.5,66.53Z"/><path class="cls-5" d="M149.5,67.09V94.23h-99V67.09a9.17,9.17,0,0,1,9.16-9.16h80.68A9.17,9.17,0,0,1,149.5,67.09Z"/><circle class="cls-6" cx="69.2" cy="65.08" r="6.6"/><rect class="cls-3" x="63.7" y="46.93" width="11" height="22" rx="5.5"/><circle class="cls-6" cx="130.8" cy="65.08" r="6.6"/><rect class="cls-3" x="125.3" y="46.93" width="11" height="22" rx="5.5"/><rect class="cls-3" x="59.6" y="105.77" width="14.05" height="14.05"/><rect class="cls-3" x="81.85" y="105.77" width="14.05" height="14.05"/><rect class="cls-3" x="104.1" y="105.77" width="14.05" height="14.05"/><rect class="cls-3" x="126.35" y="105.77" width="14.05" height="14.05"/><rect class="cls-3" x="59.6" y="128.02" width="14.05" height="14.05"/><rect class="cls-3" x="81.85" y="128.02" width="14.05" height="14.05"/><rect class="cls-3" x="104.1" y="128.02" width="14.05" height="14.05"/><rect class="cls-5" x="126.35" y="128.02" width="14.05" height="14.05"/><rect class="cls-6" x="50.5" y="89.83" width="99" height="4.4"/></svg>