<svg id="Layer_1" data-name="Layer 1" xmlns="http://www.w3.org/2000/svg" viewBox="0 0 200 200">
	<defs>
		<style>
			.cls-1{fill:#HEXCOD;}.cls-2{fill:#fff;}
		</style>
	</defs>
	<title>
		icon_card
	</title>
	<circle class="cls-1" cx="100" cy="100" r="89.5" />
	<path class="cls-2" d="M137.9,70.6A3.11,3.11,0,0,1,141,73.71v52.58a3.11,3.11,0,0,1-3.11,3.11H62.1A3.11,3.11,0,0,1,59,126.29V73.71A3.11,3.11,0,0,1,62.1,70.6h75.8m0-3.1H62.1a6.23,6.23,0,0,0-6.21,6.21v52.58a6.23,6.23,0,0,0,6.21,6.21h75.8a6.23,6.23,0,0,0,6.21-6.21V73.71a6.23,6.23,0,0,0-6.21-6.21Z" />
	<rect class="cls-2" x="55.89" y="79.88" width="88.21" height="15.48" />
	<rect class="cls-2" x="69.82" y="107.74" width="38.69" height="4.64" rx="1.53" />
	<rect class="cls-2" x="69.82" y="115.48" width="29.4" height="4.64" rx="1.33" />
	<rect class="cls-2" x="120.89" y="107.74" width="12.38" height="12.38" rx="1.41" />
</svg>
